<mxfile host="65bd71144e">
    <diagram id="gXgINIpnJ0WXEDTthAPw" name="Page-1">
        <mxGraphModel dx="736" dy="599" grid="1" gridSize="10" guides="1" tooltips="1" connect="1" arrows="1" fold="1" page="1" pageScale="1" pageWidth="850" pageHeight="1100" math="0" shadow="0">
            <root>
                <mxCell id="0"/>
                <mxCell id="1" parent="0"/>
                <mxCell id="5" value="&lt;div&gt;&lt;span data-canva-clipboard=&quot;ewAiAGEAIgA6ADUALAAiAGgAIgA6ACIAdwB3AHcALgBjAGEAbgB2AGEALgBjAG8AbQAiACwAIgBjACIAOgAiAEQAQQBHAE8AZwBUAHMANABRAHkANAAiACwAIgBpACIAOgAiADEANgBLAG8AcgBUAEsAXwBMAEoAbwA2AHEATwBtAGEANgBhAEYAUwBCAHcAIgAsACIAYgAiADoAMQA3ADIANAA5ADUANwA0ADgAOAA5ADIANAAsACIAagAiADoAWwB7AH0ALAB7AH0ALAB7AH0AXQAsACIAQQA/ACIAOgAiAEIAIgAsACIAQQAiADoAWwB7ACIAQQAiADoAMQAyADUAMwAuADQANgAwADMANwA4ADYANgA4ADcANgA5ADkALAAiAEIAIgA6AC0AOAAxADQALgA4ADkANAAyADMAOAA5ADIANQA4ADUAMwA1ACwAIgBEACIAOgA5ADEAMQAuADIANwA3ADYANAA1ADMAOAAyADYANgA4ADIALAAiAEMAIgA6ADkAOQAyAC4AOQA2ADUAOAAyADkAMQAyADIANgAyADYALAAiAFQAIgA6AHsAIgBBAEEAQQBCAGsAWgA5ADYAYgBEAFgARwBDADAALQBqAFMAUABBAFEAbwBBACIAOgAxAH0ALAAiAEEAPwAiADoAIgBIACIALAAiAGIAIgA6ADkAMQAxAC4AMgA3ADcANgA0ADUAMwA4ADIANgA2ADgAMgAsACIAYQAiADoAOQA5ADIALgA5ADYANQA4ADIAOQAxADIAMgA2ADIANgAsACIAYwAiADoAWwB7ACIAQQAiADoALQAxAC4AMQAzADYAOAA2ADgAMwA3ADcAMgAxADYAMQA2ADAAMwBlAC0AMQAzACwAIgBCACIAOgAyADUAOAAuADMAOAA4ADkAMwA4ADgAMgA5ADEANgAyADUALAAiAEQAIgA6ADQAMAA4AC4ANwA1ADUAMAA0ADMAMgAwADcAOAA4ADEAMQAsACIAQwAiADoANAAzADAALgAyADYAOAA0ADYANgA1ADMANAA2ADEAMQA2ADYALAAiAFQAIgA6AHsAIgBBAEEAQQBCAGsAWgA5ADYAYgBEAFgARwBDADAALQBqAFMAUABBAFEAbwBBACIAOgAxAH0ALAAiAEEAPwAiADoAIgBJACIALAAiAGEAIgA6AHsAIgBBACIAOgBmAGEAbABzAGUALAAiAEkAIgA6AHsAIgBBACIAOgAiAFYAQQBGAE0AUwBDAHUASABYAGEAMAAiACwAIgBCACIAOgB7ACIAQQAiADoAOAAuADUAMgA2ADUAMQAyADgAMgA5ADEAMgAxADIAMAAyAGUALQAxADQALAAiAEQAIgA6ADQAMAA4AC4ANwA1ADUAMAA0ADMAMgAwADcAOAA4ADEAMgAsACIAQwAiADoANAAzADAALgAyADYAOAA0ADYANgA1ADMANAA2ADEAMQA2ADYAfQAsACIARgAiADoAIgBCACIALAAiAEkAIgA6AHQAcgB1AGUAfQB9AH0ALAB7ACIAQQAiADoANAA5ADQALgAwADUANgA0ADYAMgA5ADYANQA4ADIAOAAyADUALAAiAEQAIgA6ADkAMQAxAC4AMgA3ADcANgA0ADUAMwA4ADIANgA2ADgAMgAsACIAQwAiADoANAA5ADgALgA5ADAAOQAzADYANgAxADUANgA3ADkANwA5ADQALAAiAFQAIgA6AHsAIgBBAEEAQQBCAGsAWgA5ADYAYgBEAFgARwBDADAALQBqAFMAUABBAFEAbwBBACIAOgAxAH0ALAAiAEEAPwAiADoAIgBKACIALAAiAGEAIgA6AHsAIgBEACIAOgA2ADQALAAiAEMAIgA6ADYANAB9ACwAIgBiACIAOgBbAHsAIgBBACIAOgAiAE0AMAAgADAASAA2ADQAVgA2ADQASAAwAHoAIgAsACIAQgAiADoAewAiAEEAIgA6AGYAYQBsAHMAZQB9ACwAIgBDACIAOgB7ACIAQQAiADoAOAAsACIAQgAiADoAIgAjADAAMAAwADAAMAAwACIALAAiAGYAIgA6AHQAcgB1AGUAfQAsACIARAAiADoAMwAwAH0AXQAsACIAYwAiADoAewAiAEEAIgA6AHsAIgBEACIAOgA2ADQALAAiAEMAIgA6ADYANAB9ACwAIgBCACIAOgAyADgAMAAuADcAOQA5ADkAOQA5ADkAOQA5ADkAOQA5ADkALAAiAEMAIgA6ADEANQAzAC4ANwAzADMAMwAzADMAMwAzADMAMwAzADMAMgA2ACwAIgBEACIAOgAiAEEAIgAsACIARQAiADoAIgBBACIAfQAsACIAZQAiADoAewB9ACwAIgBmACIAOgBbAHsAIgBBACIAOgB7ACIAQQAiADoAWwB7ACIAQQA/ACIAOgAiAEEAIgAsACIAQQAiADoAIgBcAG4AIgB9AF0ALAAiAEIAIgA6AFsAewAiAEEAPwAiADoAIgBBACIALAAiAEEAIgA6AHsAIgB0AGUAeAB0AC0AYQBsAGkAZwBuACIAOgB7ACIAQgAiADoAIgBjAGUAbgB0AGUAcgAiAH0ALAAiAHMAcABhAGMAaQBuAGcAIgA6AHsAIgBCACIAOgAiADAALgAwACIAfQAsACIAZgBvAG4AdAAtAHMAaQB6AGUAIgA6AHsAIgBCACIAOgAiADEANgAuADAAIgB9ACwAIgBmAG8AbgB0AC0AZgBhAG0AaQBsAHkAIgA6AHsAIgBCACIAOgAiAFkAQQBGAGQASgBqAFQAawA1AFUAVQAsADAAIgB9ACwAIgBjAG8AbABvAHIAIgA6AHsAIgBCACIAOgAiACMAZgBmAGYAZgBmAGYAIgB9AH0AfQAsAHsAIgBBAD8AIgA6ACIAQgAiACwAIgBBACIAOgAxAH0ALAB7ACIAQQA/ACIAOgAiAEEAIgAsACIAQQAiADoAewAiAHQAZQB4AHQALQBhAGwAaQBnAG4AIgA6AHsAfQAsACIAcwBwAGEAYwBpAG4AZwAiADoAewB9ACwAIgBmAG8AbgB0AC0AcwBpAHoAZQAiADoAewB9ACwAIgBmAG8AbgB0AC0AZgBhAG0AaQBsAHkAIgA6AHsAfQAsACIAYwBvAGwAbwByACIAOgB7AH0AfQB9AF0AfQAsACIAQgAiADoAewAiAEEAIgA6AFsAMABdAH0ALAAiAEQAIgA6AHsAIgBEACIAOgA2ADQALAAiAEMAIgA6ADYANAB9ACwAIgBFACIAOgBbADQAXQAsACIARgAiADoAIgBCACIAfQBdACwAIgBoACIAOgB7ACIAQQA/ACIAOgAiAEgAIgAsACIAQQAiADoANAA5ADgALgA5ADAAOQAzADYANgAxADUANgA3ADkANwA5ADQAfQB9ACwAewAiAEEAIgA6ADQANgA0AC4AOAA4ADQAOQAwADEAMwAwADYAOQA4ADIANgA3ACwAIgBCACIAOgA1ADQALgA5ADUAMwA1ADkAMAAyADAAMQAxADMAOQAxADUALAAiAEQAIgA6ADgAMAAxAC4AMwA3ADAANAA2ADQAOQA4ADAAMwA4ADkAOQAsACIAQwAiADoANgA2AC4ANgAzADYANgA4ADAAMgAwADcAMwA1ADcANwA2ACwAIgBUACIAOgB7ACIAQQBBAEEAQgBrAFoAOQA2AGIARABYAEcAQwAwAC0AagBTAFAAQQBRAG8AQQAiADoAMQB9ACwAIgBBAD8AIgA6ACIASwAiACwAIgBhACIAOgB7ACIAQQAiADoAWwB7ACIAQQA/ACIAOgAiAEEAIgAsACIAQQAiADoAIgBCAGkAbgBhAHIAeQAgAHQAZQB4AHQAIAB0AG8AIABpAG0AYQBnAGUAXABuACIAfQBdACwAIgBCACIAOgBbAHsAIgBBAD8AIgA6ACIAQQAiACwAIgBBACIAOgB7ACIAZgBvAG4AdAAtAHMAaQB6AGUAIgA6AHsAIgBCACIAOgAiADUAMQAuADkAOQA5ADgAIgB9ACwAIgBmAG8AbgB0AC0AZgBhAG0AaQBsAHkAIgA6AHsAIgBCACIAOgAiAFkAQQBGAGQASgBqAFQAawA1AFUAVQAsADAAIgB9ACwAIgBmAG8AbgB0AC0AdwBlAGkAZwBoAHQAIgA6AHsAIgBCACIAOgAiAGIAbwBsAGQAIgB9ACwAIgB0AGUAeAB0AC0AYQBsAGkAZwBuACIAOgB7ACIAQgAiADoAIgBjAGUAbgB0AGUAcgAiAH0ALAAiAGMAbwBsAG8AcgAiADoAewAiAEIAIgA6ACIAIwBmAGYAZgBmAGYAZgAiAH0AfQB9ACwAewAiAEEAPwAiADoAIgBCACIALAAiAEEAIgA6ADIAMAB9ACwAewAiAEEAPwAiADoAIgBBACIALAAiAEEAIgA6AHsAIgBmAG8AbgB0AC0AcwB0AHkAbABlACIAOgB7ACIAQgAiADoAIgBuAG8AcgBtAGEAbAAiAH0AfQB9ACwAewAiAEEAPwAiADoAIgBCACIALAAiAEEAIgA6ADEAfQAsAHsAIgBBAD8AIgA6ACIAQQAiACwAIgBBACIAOgB7ACIAZgBvAG4AdAAtAGYAYQBtAGkAbAB5ACIAOgB7AH0ALAAiAGYAbwBuAHQALQBzAGkAegBlACIAOgB7AH0ALAAiAGYAbwBuAHQALQB3AGUAaQBnAGgAdAAiADoAewB9ACwAIgBjAG8AbABvAHIAIgA6AHsAfQAsACIAdABlAHgAdAAtAGEAbABpAGcAbgAiADoAewB9ACwAIgBmAG8AbgB0AC0AcwB0AHkAbABlACIAOgB7AH0AfQB9AF0AfQAsACIAYgAiADoAewAiAEEAIgA6AFsAMgAxAF0AfQAsACIAagAiADoAewAiAEEAIgA6AFsAewAiAEEAIgA6ACIAYgBhAGMAawBnAHIAbwB1AG4AZAAiACwAIgBCACIAOgB7ACIAcgBvAHUAbgBkAG4AZQBzAHMAIgA6ACIAMAAuADUAIgAsACIAcwBwAHIAZQBhAGQAIgA6ACIAMAAuADUAIgAsACIAdAByAGEAbgBzAHAAYQByAGUAbgBjAHkAIgA6ACIAMQAiACwAIgBjAG8AbABvAHIAIgA6ACIAIwA1ADIANwAxAGYAZgAiAH0AfQBdAH0ALAAiAGQAIgA6ACIAQQAiACwAIgBlACIAOgA3ADQAMAAuADgALAAiAGYAIgA6ADYAMQAuADYAMAAwADAANAAsACIAaAAiADoAIgBBACIAfQAsAHsAIgBBACIAOgA1ADcANgAuADYAMwAwADkAOQAzADIANgA1ADQANQA2ADEALAAiAEIAIgA6ADUANAAuADkANQAzADUAOQAwADIAMAAxADEAMwA5ADEANQAsACIARAAiADoAOAAwADEALgAzADcAMAA0ADYANAA5ADgAMAAzADgAOQA5ACwAIgBDACIAOgAzADMAMwAuADcANgAwADMAMAA1ADUANQA3ADUANAAyADAANAAsACIAVAAiADoAewAiAEEAQQBBAEIAawBaADkANgBiAEQAWABHAEMAMAAtAGoAUwBQAEEAUQBvAEEAIgA6ADEAfQAsACIAQQA/ACIAOgAiAEsAIgAsACIAYQAiADoAewAiAEEAIgA6AFsAewAiAEEAPwAiADoAIgBBACIALAAiAEEAIgA6ACIAQgBpAG4AYQByAHkAIAB0AGUAeAB0ACAAaQBzACAAYwBvAG4AdgBlAHIAdABlAGQAIAB0AG8AIABhAG4AIABpAG0AYQBnAGUAIABiAHkAIABtAGEAcABwAGkAbgBnACAAYgBpAHQAcwAgAHQAbwAgAHAAaQB4AGUAbAAgAHYAYQBsAHUAZQBzACAAaQBuACAAZwByAGEAeQBzAGMAYQBsAGUALgBcAG4AIgB9AF0ALAAiAEIAIgA6AFsAewAiAEEAPwAiADoAIgBBACIALAAiAEEAIgA6AHsAIgBmAG8AbgB0AC0AcwBpAHoAZQAiADoAewAiAEIAIgA6ACIANQA3AC4AMwAzADIANQAiAH0ALAAiAHQAZQB4AHQALQBhAGwAaQBnAG4AIgA6AHsAIgBCACIAOgAiAGoAdQBzAHQAaQBmAHkAIgB9ACwAIgBmAG8AbgB0AC0AZgBhAG0AaQBsAHkAIgA6AHsAIgBCACIAOgAiAFkAQQBGAGQASgBqAFQAawA1AFUAVQAsADAAIgB9ACwAIgBmAG8AbgB0AC0AdwBlAGkAZwBoAHQAIgA6AHsAIgBCACIAOgAiAGIAbwBsAGQAIgB9ACwAIgBoAGUAYQBkAC0AaQBuAGQAZQBuAHQAIgA6AHsAIgBCACIAOgAiADEANwAwADAALgAwACIAfQAsACIAbABpAHMAdAAtAGwAZQB2AGUAbAAiADoAewAiAEIAIgA6ACIAMQAuADAAIgB9ACwAIgBsAGkAcwB0AC0AbQBhAHIAawBlAHIAIgA6AHsAIgBCACIAOgAiAGQAaQBzAGMAIgB9AH0AfQAsAHsAIgBBAD8AIgA6ACIAQgAiACwAIgBBACIAOgA4ADIAfQAsAHsAIgBBAD8AIgA6ACIAQQAiACwAIgBBACIAOgB7ACIAZgBvAG4AdAAtAHMAdAB5AGwAZQAiADoAewAiAEIAIgA6ACIAbgBvAHIAbQBhAGwAIgB9ACwAIgBjAG8AbABvAHIAIgA6AHsAIgBCACIAOgAiACMAMAAwADAAMAAwADAAIgB9ACwAIgBoAGUAYQBkAC0AaQBuAGQAZQBuAHQAIgA6AHsAfQAsACIAbABpAHMAdAAtAGwAZQB2AGUAbAAiADoAewB9ACwAIgBsAGkAcwB0AC0AbQBhAHIAawBlAHIAIgA6AHsAfQB9AH0ALAB7ACIAQQA/ACIAOgAiAEIAIgAsACIAQQAiADoAMQB9ACwAewAiAEEAPwAiADoAIgBBACIALAAiAEEAIgA6AHsAIgBmAG8AbgB0AC0AcwBpAHoAZQAiADoAewB9ACwAIgB0AGUAeAB0AC0AYQBsAGkAZwBuACIAOgB7AH0ALAAiAGYAbwBuAHQALQBmAGEAbQBpAGwAeQAiADoAewB9ACwAIgBmAG8AbgB0AC0AdwBlAGkAZwBoAHQAIgA6AHsAfQAsACIAZgBvAG4AdAAtAHMAdAB5AGwAZQAiADoAewB9ACwAIgBjAG8AbABvAHIAIgA6AHsAfQB9AH0AXQB9ACwAIgBiACIAOgB7ACIAQQAiADoAWwAyADUALAAyADMALAAyADQALAAxADEAXQB9ACwAIgBkACIAOgAiAEEAIgAsACIAZQAiADoANwA0ADAALgA4ACwAIgBmACIAOgAzADAAOAAuADUAMwAzADUALAAiAGgAIgA6ACIAQQAiAH0AXQB9AF0ALAAiAEIAIgA6AC0AMQAsACIAQwAiADoALQAxAH0A&quot;&gt;&lt;/span&gt;&lt;div&gt;&lt;p&gt;Binary text to image&lt;/p&gt;&lt;p&gt;Binary text is converted to an image by mapping bits to pixel values in grayscale.&lt;/p&gt;&lt;/div&gt;&lt;/div&gt;" style="text;whiteSpace=wrap;html=1;" vertex="1" parent="1">
                    <mxGeometry x="330" y="240" width="460" height="90" as="geometry"/>
                </mxCell>
            </root>
        </mxGraphModel>
    </diagram>
</mxfile>